<?xml version="1.0" encoding="UTF-8"?>
<svg id="Livello_2" data-name="Livello 2" xmlns="http://www.w3.org/2000/svg" viewBox="0 0 262.04 56.87">
  <defs>
    <style>
      .cls-1 {
        fill: #0093be;
      }

      .cls-2 {
        fill: #007188;
      }

      .cls-3 {
        fill: #1f95aa;
      }
    </style>
  </defs>
  <g id="Livello_1-2" data-name="Livello 1">
    <g>
      <g>
        <path class="cls-1" d="m116.84,13.72c.07.67.2,1.7,1,1.96.54.17,1.02.17,1.2.17.09,0,.15.02.15.09,0,.11-.17.17-.39.17-.41,0-2.4-.06-3.09-.11-.43-.04-.52-.09-.52-.18,0-.07.04-.11.13-.13.09-.02.11-.33.07-.66l-.89-9.53h-.06l-4.53,9.61c-.39.81-.44.98-.61.98-.13,0-.22-.18-.57-.85-.48-.91-2.07-4.1-2.16-4.29-.17-.33-2.24-4.77-2.44-5.27h-.07l-.74,8.57c-.02.3-.02.63-.02.94,0,.28.2.52.48.57.31.07.59.09.7.09.07,0,.15.04.15.09,0,.13-.11.17-.33.17-.68,0-1.57-.06-1.72-.06-.17,0-1.05.06-1.55.06-.18,0-.31-.04-.31-.17,0-.06.09-.09.18-.09.15,0,.28,0,.55-.06.61-.11.67-.83.74-1.53l1.33-12.05c.02-.2.09-.33.2-.33s.18.07.28.28l5.65,11.62,5.43-11.6c.07-.17.15-.3.28-.3s.18.15.22.5l1.24,11.34Z"/>
        <path class="cls-1" d="m127.67,1.88c4.16,0,7.26,2.62,7.26,6.93s-2.92,7.56-7.37,7.56c-5.06,0-7.17-3.94-7.17-7.26,0-2.99,2.18-7.22,7.28-7.22Zm.39,13.78c1.66,0,5.1-.96,5.1-6.34,0-4.43-2.7-6.82-5.62-6.82-3.09,0-5.4,2.03-5.4,6.08,0,4.31,2.59,7.08,5.91,7.08Z"/>
        <path class="cls-1" d="m139.35,13.59c.04,1.51.22,2,.72,2.14.35.09.76.11.92.11.09,0,.15.04.15.11,0,.11-.11.15-.33.15-1.05,0-1.79-.06-1.96-.06s-.94.06-1.77.06c-.18,0-.3-.02-.3-.15,0-.07.06-.11.15-.11.15,0,.48-.02.76-.11.46-.13.55-.66.55-2.35l.02-10.59c0-.72.06-.92.2-.92s.46.41.65.59c.28.31,3.03,3.29,5.88,6.34,1.83,1.96,3.84,4.21,4.43,4.82l-.2-9.39c-.02-1.2-.15-1.61-.72-1.76-.33-.07-.76-.09-.91-.09-.13,0-.15-.06-.15-.13,0-.11.15-.13.37-.13.83,0,1.72.06,1.92.06s.81-.06,1.57-.06c.2,0,.33.02.33.13,0,.07-.07.13-.2.13-.09,0-.22,0-.44.06-.61.13-.68.54-.68,1.64l-.04,10.83c0,1.22-.04,1.31-.17,1.31-.15,0-.37-.2-1.35-1.18-.2-.18-2.86-2.9-4.82-5.01-2.14-2.31-4.23-4.64-4.82-5.3l.24,8.85Z"/>
        <path class="cls-1" d="m159.01,2.6c.22-.61.3-.72.41-.72s.18.09.41.67c.28.7,3.18,8.33,4.31,11.14.67,1.64,1.2,1.94,1.59,2.05.28.09.55.11.74.11.11,0,.18.02.18.11,0,.11-.17.15-.37.15-.28,0-1.63,0-2.9-.04-.35-.02-.55-.02-.55-.13,0-.07.06-.11.13-.13.11-.04.22-.2.11-.5l-1.72-4.55c-.04-.07-.07-.11-.17-.11h-3.97c-.09,0-.15.06-.18.15l-1.11,3.27c-.17.46-.26.91-.26,1.24,0,.37.39.54.7.54h.18c.13,0,.18.04.18.11,0,.11-.11.15-.28.15-.44,0-1.24-.06-1.44-.06s-1.22.06-2.09.06c-.24,0-.35-.04-.35-.15,0-.07.07-.11.17-.11.13,0,.39-.02.54-.04.85-.11,1.22-.81,1.55-1.74l4.19-11.47Zm1.92,7.39c.09,0,.09-.06.07-.13l-1.76-4.99c-.09-.28-.18-.28-.28,0l-1.63,4.99c-.04.09,0,.13.06.13h3.53Z"/>
        <path class="cls-1" d="m168.27,15.86c-.26-.13-.28-.2-.28-.7,0-.92.07-1.66.09-1.96.02-.2.06-.3.15-.3.11,0,.13.06.13.2,0,.17,0,.42.06.68.28,1.37,1.5,1.88,2.73,1.88,1.77,0,2.64-1.27,2.64-2.46,0-1.27-.54-2.01-2.12-3.33l-.83-.68c-1.96-1.61-2.4-2.75-2.4-4.01,0-1.98,1.48-3.33,3.82-3.33.72,0,1.26.07,1.72.19.35.07.5.09.65.09s.18.04.18.13-.07.7-.07,1.96c0,.3-.04.43-.13.43-.11,0-.13-.09-.15-.24-.02-.22-.13-.72-.24-.92-.11-.2-.61-.98-2.31-.98-1.28,0-2.27.79-2.27,2.14,0,1.05.48,1.72,2.25,3.1l.52.41c2.18,1.72,2.7,2.86,2.7,4.34,0,.76-.3,2.16-1.57,3.07-.79.55-1.79.78-2.79.78-.87,0-1.72-.13-2.48-.5Z"/>
        <path class="cls-1" d="m183.92,10.75c0,1.77,0,3.23.09,4.01.06.54.17.94.72,1.02.26.04.67.07.83.07.11,0,.15.06.15.11,0,.09-.09.15-.3.15-1.02,0-2.18-.06-2.27-.06s-1.26.06-1.81.06c-.2,0-.3-.04-.3-.15,0-.06.04-.11.15-.11.17,0,.39-.04.55-.07.37-.07.46-.48.54-1.02.09-.78.09-2.24.09-4.01V2.93l-2.73.04c-1.15.02-1.59.15-1.88.59-.2.31-.26.44-.31.57-.06.15-.11.18-.18.18-.06,0-.09-.06-.09-.17,0-.18.37-1.77.41-1.92.04-.11.11-.35.18-.35.13,0,.31.19.81.22.54.06,1.24.09,1.46.09h6.93c.59,0,1.02-.04,1.31-.09.28-.04.44-.09.52-.09.09,0,.09.11.09.22,0,.55-.06,1.83-.06,2.03,0,.17-.06.24-.13.24-.09,0-.13-.06-.15-.31l-.02-.2c-.06-.55-.5-.98-2.27-1.02l-2.33-.04v7.82Z"/>
        <path class="cls-1" d="m192.75,7.49c0-2.88,0-3.4-.04-3.99-.04-.63-.18-.92-.79-1.05-.15-.04-.46-.06-.63-.06-.07,0-.15-.04-.15-.11,0-.11.09-.15.3-.15.42,0,.92,0,1.33.02l.76.04c.13,0,3.81,0,4.23-.02.35-.02.65-.06.79-.09.09-.02.17-.09.26-.09.06,0,.07.07.07.17,0,.13-.09.35-.15.87-.02.18-.06,1-.09,1.22-.02.09-.06.2-.13.2-.11,0-.15-.09-.15-.24,0-.13-.02-.44-.11-.67-.13-.3-.31-.52-1.31-.63-.31-.04-2.33-.06-2.53-.06-.07,0-.11.06-.11.18v5.1c0,.13.02.18.11.18.24,0,2.51,0,2.94-.04.44-.04.7-.07.87-.26.13-.15.2-.24.28-.24.06,0,.09.04.09.15s-.09.42-.15,1.03c-.04.37-.07,1.05-.07,1.18,0,.15,0,.35-.13.35-.09,0-.13-.07-.13-.17,0-.18,0-.37-.07-.61-.07-.26-.24-.57-.96-.65-.5-.06-2.33-.09-2.64-.09-.09,0-.13.06-.13.13v1.63c0,.63-.02,2.77,0,3.16.06,1.27.33,1.52,2.14,1.52.48,0,1.29,0,1.77-.2.48-.2.7-.57.83-1.33.04-.2.07-.28.17-.28.11,0,.11.15.11.28,0,.15-.15,1.4-.24,1.79-.13.48-.28.48-1,.48-1.39,0-2.4-.04-3.12-.06-.72-.04-1.16-.06-1.44-.06-.04,0-.35,0-.74.02-.37,0-.79.04-1.07.04-.2,0-.3-.04-.3-.15,0-.06.04-.11.15-.11.17,0,.39-.04.55-.07.37-.07.46-.48.54-1.02.09-.78.09-2.24.09-4.01v-3.25Z"/>
        <path class="cls-1" d="m204.02,7.49c0-2.88,0-3.4-.04-3.99-.04-.63-.18-.92-.79-1.05-.15-.04-.46-.06-.63-.06-.07,0-.15-.04-.15-.11,0-.11.09-.15.3-.15.83,0,2,.06,2.09.06.2,0,1.61-.06,2.18-.06,1.16,0,2.4.11,3.38.81.46.33,1.27,1.24,1.27,2.51,0,1.37-.57,2.73-2.24,4.27,1.51,1.94,2.77,3.58,3.84,4.73,1,1.05,1.79,1.26,2.25,1.33.35.06.61.06.72.06.09,0,.17.06.17.11,0,.11-.11.15-.44.15h-1.31c-1.03,0-1.5-.09-1.98-.35-.79-.42-1.44-1.33-2.49-2.72-.78-1.02-1.64-2.25-2.01-2.73-.07-.07-.13-.11-.24-.11l-2.27-.04c-.09,0-.13.06-.13.15v.44c0,1.77,0,3.23.09,4.01.06.54.17.94.72,1.02.26.04.66.07.83.07.11,0,.15.06.15.11,0,.09-.09.15-.3.15-1.02,0-2.18-.06-2.27-.06-.02,0-1.18.06-1.74.06-.2,0-.3-.04-.3-.15,0-.06.04-.11.15-.11.17,0,.39-.04.55-.07.37-.07.46-.48.54-1.02.09-.78.09-2.24.09-4.01v-3.25Zm1.48,1.61c0,.09.04.17.13.22.28.17,1.13.3,1.94.3.44,0,.96-.06,1.39-.35.65-.44,1.13-1.44,1.13-2.85,0-2.31-1.22-3.7-3.2-3.7-.55,0-1.05.06-1.24.11-.09.04-.15.11-.15.22v6.04Z"/>
        <path class="cls-1" d="m223.38,1.88c4.16,0,7.26,2.62,7.26,6.93s-2.92,7.56-7.37,7.56c-5.06,0-7.17-3.94-7.17-7.26,0-2.99,2.18-7.22,7.28-7.22Zm.39,13.78c1.66,0,5.1-.96,5.1-6.34,0-4.43-2.7-6.82-5.62-6.82-3.09,0-5.4,2.03-5.4,6.08,0,4.31,2.59,7.08,5.91,7.08Z"/>
      </g>
      <g>
        <path class="cls-2" d="m75.13,27.74c0-3.74,0-4.43-.05-5.22-.05-.84-.25-1.23-1.06-1.4-.2-.05-.62-.07-.96-.07-.27,0-.42-.05-.42-.22s.17-.22.54-.22c1.31,0,2.86.07,3.55.07.76,0,2.32-.07,3.79-.07,3.08,0,7.19,0,9.88,2.81,1.23,1.28,2.39,3.33,2.39,6.26,0,3.1-1.31,5.47-2.69,6.87-1.13,1.16-3.7,2.91-8.25,2.91-.89,0-1.9-.07-2.83-.15-.94-.07-1.8-.15-2.41-.15-.27,0-.81,0-1.4.02-.57,0-1.21.05-1.7.05-.32,0-.49-.07-.49-.25,0-.12.1-.2.39-.2.37,0,.67-.05.89-.1.49-.1.62-.64.71-1.35.12-1.03.12-2.98.12-5.25v-4.34Zm3.08,2.71c0,2.61.02,4.51.05,4.98.02.62.07,1.6.27,1.87.32.47,1.28.99,3.23.99,2.51,0,4.19-.49,5.67-1.77,1.58-1.36,2.07-3.6,2.07-6.13,0-3.13-1.31-5.15-2.37-6.16-2.27-2.17-5.08-2.46-7-2.46-.49,0-1.4.07-1.6.17-.22.1-.3.22-.3.49-.02.84-.02,2.98-.02,4.93v3.1Z"/>
        <path class="cls-2" d="m97.96,27.74c0-3.74,0-4.43-.05-5.22-.05-.84-.25-1.23-1.06-1.4-.2-.05-.62-.07-.96-.07-.27,0-.42-.05-.42-.22s.17-.22.54-.22c.67,0,1.38.02,2,.02.64.02,1.21.05,1.55.05.79,0,5.69,0,6.16-.02.47-.05.86-.1,1.06-.15.12-.02.27-.1.39-.1s.15.1.15.22c0,.17-.12.47-.2,1.6-.02.25-.07,1.33-.12,1.63-.02.12-.07.27-.25.27s-.22-.12-.22-.35c0-.17-.02-.59-.15-.89-.17-.44-.42-.74-1.65-.89-.42-.05-3.01-.1-3.5-.1-.12,0-.17.07-.17.25v6.23c0,.17.02.27.17.27.54,0,3.38,0,3.94-.05.59-.05.96-.12,1.18-.37.17-.2.27-.32.39-.32.1,0,.17.05.17.2s-.1.54-.2,1.8c-.02.49-.1,1.48-.1,1.65,0,.2,0,.47-.22.47-.17,0-.22-.1-.22-.22-.02-.25-.02-.57-.1-.89-.12-.49-.47-.86-1.38-.96-.47-.05-2.91-.07-3.5-.07-.12,0-.15.1-.15.25v1.95c0,.84-.02,3.1,0,3.82.05,1.7.44,2.07,2.96,2.07.64,0,1.68,0,2.32-.3.64-.3.94-.81,1.11-1.82.05-.27.1-.37.27-.37.2,0,.2.2.2.44,0,.57-.2,2.24-.32,2.73-.17.64-.39.64-1.33.64-1.85,0-3.2-.05-4.26-.07-1.06-.05-1.82-.07-2.56-.07-.27,0-.81,0-1.4.02-.57,0-1.21.05-1.7.05-.32,0-.49-.07-.49-.25,0-.12.1-.2.39-.2.37,0,.67-.05.89-.1.49-.1.62-.64.71-1.35.12-1.03.12-2.98.12-5.25v-4.34Z"/>
        <path class="cls-2" d="m116.61,32.07c0,3.15,0,4.85.52,5.3.42.37,1.06.54,2.98.54,1.31,0,2.27-.02,2.88-.69.3-.32.59-1.01.64-1.48.02-.22.07-.37.27-.37.17,0,.2.12.2.42,0,.27-.17,2.12-.37,2.83-.15.54-.27.67-1.55.67-1.77,0-3.06-.05-4.16-.07-1.11-.05-2-.07-3.01-.07-.27,0-.81,0-1.4.02-.57,0-1.21.05-1.7.05-.32,0-.49-.07-.49-.25,0-.12.1-.2.39-.2.37,0,.67-.05.89-.1.49-.1.62-.64.71-1.35.12-1.03.12-2.98.12-5.25v-4.34c0-3.74,0-4.43-.05-5.22-.05-.84-.25-1.23-1.06-1.4-.2-.05-.49-.07-.81-.07-.27,0-.42-.05-.42-.22s.17-.22.54-.22c1.16,0,2.71.07,3.38.07.59,0,2.39-.07,3.35-.07.34,0,.52.05.52.22s-.15.22-.44.22c-.27,0-.67.02-.96.07-.67.12-.86.54-.91,1.4-.05.79-.05,1.48-.05,5.22v4.34Z"/>
        <path class="cls-2" d="m131.52,32.07c0,3.15,0,4.85.52,5.3.42.37,1.06.54,2.98.54,1.31,0,2.27-.02,2.88-.69.3-.32.59-1.01.64-1.48.02-.22.07-.37.27-.37.17,0,.2.12.2.42,0,.27-.17,2.12-.37,2.83-.15.54-.27.67-1.55.67-1.77,0-3.05-.05-4.16-.07-1.11-.05-2-.07-3.01-.07-.27,0-.81,0-1.4.02-.57,0-1.21.05-1.7.05-.32,0-.49-.07-.49-.25,0-.12.1-.2.39-.2.37,0,.67-.05.89-.1.49-.1.62-.64.71-1.35.12-1.03.12-2.98.12-5.25v-4.34c0-3.74,0-4.43-.05-5.22-.05-.84-.25-1.23-1.06-1.4-.2-.05-.49-.07-.81-.07-.27,0-.42-.05-.42-.22s.17-.22.54-.22c1.16,0,2.71.07,3.38.07.59,0,2.39-.07,3.35-.07.34,0,.52.05.52.22s-.15.22-.44.22c-.27,0-.67.02-.96.07-.67.12-.86.54-.91,1.4-.05.79-.05,1.48-.05,5.22v4.34Z"/>
        <path class="cls-2" d="m144.8,32.79c-.12,0-.17.05-.22.2l-1.33,3.52c-.25.62-.37,1.21-.37,1.5,0,.44.22.76.99.76h.37c.3,0,.37.05.37.2,0,.2-.15.25-.42.25-.79,0-1.85-.07-2.61-.07-.27,0-1.63.07-2.91.07-.32,0-.47-.05-.47-.25,0-.15.1-.2.3-.2.22,0,.57-.02.76-.05,1.13-.15,1.6-.99,2.09-2.22l6.18-15.47c.3-.71.44-.99.69-.99.22,0,.37.22.62.79.59,1.36,4.53,11.41,6.11,15.15.94,2.22,1.65,2.56,2.17,2.69.37.07.74.1,1.03.1.2,0,.32.02.32.2,0,.2-.22.25-1.13.25s-2.69,0-4.66-.05c-.44-.02-.74-.02-.74-.2,0-.15.1-.2.34-.22.17-.05.34-.27.22-.57l-1.97-5.22c-.05-.12-.12-.17-.25-.17h-5.49Zm5.03-1.23c.12,0,.15-.07.12-.15l-2.22-6.09c-.02-.1-.05-.22-.12-.22s-.12.12-.15.22l-2.27,6.06c-.02.1,0,.17.1.17h4.53Z"/>
        <path class="cls-2" d="m167.09,38.92c-.39-.17-.47-.3-.47-.84,0-1.35.1-2.83.12-3.23.03-.37.1-.64.3-.64.22,0,.25.22.25.42,0,.32.1.84.22,1.26.54,1.82,2,2.49,3.52,2.49,2.22,0,3.3-1.5,3.3-2.81,0-1.21-.37-2.34-2.41-3.94l-1.13-.89c-2.71-2.12-3.65-3.84-3.65-5.84,0-2.71,2.27-4.66,5.69-4.66,1.6,0,2.64.25,3.28.42.22.05.35.12.35.3,0,.32-.1,1.03-.1,2.96,0,.54-.07.74-.27.74-.17,0-.25-.15-.25-.44,0-.22-.12-.99-.64-1.63-.37-.47-1.08-1.21-2.69-1.21-1.82,0-2.93,1.06-2.93,2.54,0,1.13.57,2,2.61,3.55l.69.52c2.98,2.24,4.04,3.94,4.04,6.28,0,1.43-.54,3.13-2.32,4.29-1.23.79-2.61,1.01-3.92,1.01-1.43,0-2.54-.17-3.6-.64Z"/>
        <path class="cls-2" d="m186.06,21.97l-3.67.1c-1.43.05-2.02.17-2.39.71-.25.37-.37.67-.42.86-.05.2-.12.3-.27.3-.17,0-.22-.12-.22-.39,0-.39.47-2.64.52-2.83.07-.32.15-.47.3-.47.2,0,.44.25,1.06.3.71.07,1.65.12,2.46.12h9.76c.79,0,1.33-.07,1.7-.12.37-.07.57-.12.67-.12.17,0,.2.15.2.52,0,.52-.07,2.22-.07,2.86-.02.25-.07.39-.22.39-.2,0-.25-.12-.27-.49l-.02-.27c-.05-.64-.71-1.33-2.91-1.38l-3.1-.07v10.1c0,2.27,0,4.21.12,5.27.07.69.22,1.23.96,1.33.34.05.89.1,1.26.1.27,0,.39.07.39.2,0,.17-.2.25-.47.25-1.63,0-3.18-.07-3.87-.07-.57,0-2.12.07-3.1.07-.32,0-.49-.07-.49-.25,0-.12.1-.2.39-.2.37,0,.67-.05.89-.1.49-.1.64-.64.71-1.35.12-1.03.12-2.98.12-5.25v-10.1Z"/>
        <path class="cls-2" d="m200.28,27.74c0-3.74,0-4.43-.05-5.22-.05-.84-.25-1.23-1.06-1.4-.2-.05-.62-.07-.96-.07-.27,0-.42-.05-.42-.22s.17-.22.54-.22c.66,0,1.38.02,2,.02.64.02,1.21.05,1.55.05.79,0,5.69,0,6.16-.02.47-.05.86-.1,1.06-.15.12-.02.27-.1.39-.1s.15.1.15.22c0,.17-.12.47-.2,1.6-.02.25-.07,1.33-.12,1.63-.02.12-.07.27-.25.27s-.22-.12-.22-.35c0-.17-.02-.59-.15-.89-.17-.44-.42-.74-1.65-.89-.42-.05-3.01-.1-3.5-.1-.12,0-.17.07-.17.25v6.23c0,.17.02.27.17.27.54,0,3.38,0,3.94-.05.59-.05.96-.12,1.18-.37.17-.2.27-.32.39-.32.1,0,.17.05.17.2s-.1.54-.2,1.8c-.02.49-.1,1.48-.1,1.65,0,.2,0,.47-.22.47-.17,0-.22-.1-.22-.22-.02-.25-.02-.57-.1-.89-.12-.49-.47-.86-1.38-.96-.47-.05-2.91-.07-3.5-.07-.12,0-.15.1-.15.25v1.95c0,.84-.02,3.1,0,3.82.05,1.7.44,2.07,2.96,2.07.64,0,1.68,0,2.32-.3.64-.3.94-.81,1.11-1.82.05-.27.1-.37.27-.37.2,0,.2.2.2.44,0,.57-.2,2.24-.32,2.73-.17.64-.39.64-1.33.64-1.85,0-3.2-.05-4.26-.07-1.06-.05-1.82-.07-2.56-.07-.27,0-.81,0-1.4.02-.57,0-1.21.05-1.7.05-.32,0-.49-.07-.49-.25,0-.12.1-.2.39-.2.37,0,.66-.05.89-.1.49-.1.62-.64.71-1.35.12-1.03.12-2.98.12-5.25v-4.34Z"/>
        <path class="cls-2" d="m218.93,32.07c0,3.15,0,4.85.52,5.3.42.37,1.06.54,2.98.54,1.31,0,2.27-.02,2.88-.69.3-.32.59-1.01.64-1.48.02-.22.07-.37.27-.37.17,0,.2.12.2.42,0,.27-.17,2.12-.37,2.83-.15.54-.27.67-1.55.67-1.77,0-3.06-.05-4.16-.07-1.11-.05-2-.07-3.01-.07-.27,0-.81,0-1.4.02-.57,0-1.21.05-1.7.05-.32,0-.49-.07-.49-.25,0-.12.1-.2.39-.2.37,0,.66-.05.89-.1.49-.1.62-.64.71-1.35.12-1.03.12-2.98.12-5.25v-4.34c0-3.74,0-4.43-.05-5.22-.05-.84-.25-1.23-1.06-1.4-.2-.05-.49-.07-.81-.07-.27,0-.42-.05-.42-.22s.17-.22.54-.22c1.16,0,2.71.07,3.38.07.59,0,2.39-.07,3.35-.07.34,0,.52.05.52.22s-.15.22-.44.22c-.27,0-.66.02-.96.07-.67.12-.86.54-.91,1.4-.05.79-.05,1.48-.05,5.22v4.34Z"/>
        <path class="cls-2" d="m233.83,32.07c0,3.15,0,4.85.52,5.3.42.37,1.06.54,2.98.54,1.31,0,2.27-.02,2.88-.69.3-.32.59-1.01.64-1.48.02-.22.07-.37.27-.37.17,0,.2.12.2.42,0,.27-.17,2.12-.37,2.83-.15.54-.27.67-1.55.67-1.77,0-3.05-.05-4.16-.07-1.11-.05-2-.07-3.01-.07-.27,0-.81,0-1.4.02-.57,0-1.21.05-1.7.05-.32,0-.49-.07-.49-.25,0-.12.1-.2.39-.2.37,0,.66-.05.89-.1.49-.1.62-.64.71-1.35.12-1.03.12-2.98.12-5.25v-4.34c0-3.74,0-4.43-.05-5.22-.05-.84-.25-1.23-1.06-1.4-.2-.05-.49-.07-.81-.07-.27,0-.42-.05-.42-.22s.17-.22.54-.22c1.16,0,2.71.07,3.37.07.59,0,2.39-.07,3.35-.07.35,0,.52.05.52.22s-.15.22-.44.22c-.27,0-.66.02-.96.07-.67.12-.86.54-.91,1.4-.05.79-.05,1.48-.05,5.22v4.34Z"/>
        <path class="cls-2" d="m248.37,32.79c-.12,0-.17.05-.22.2l-1.33,3.52c-.25.62-.37,1.21-.37,1.5,0,.44.22.76.99.76h.37c.3,0,.37.05.37.2,0,.2-.15.25-.42.25-.79,0-1.85-.07-2.61-.07-.27,0-1.63.07-2.91.07-.32,0-.47-.05-.47-.25,0-.15.1-.2.3-.2.22,0,.57-.02.76-.05,1.13-.15,1.6-.99,2.09-2.22l6.18-15.47c.3-.71.44-.99.69-.99.22,0,.37.22.62.79.59,1.36,4.53,11.41,6.11,15.15.94,2.22,1.65,2.56,2.17,2.69.37.07.74.1,1.03.1.2,0,.32.02.32.2,0,.2-.22.25-1.13.25s-2.69,0-4.66-.05c-.44-.02-.74-.02-.74-.2,0-.15.1-.2.34-.22.17-.05.35-.27.22-.57l-1.97-5.22c-.05-.12-.12-.17-.25-.17h-5.49Zm5.03-1.23c.12,0,.15-.07.12-.15l-2.22-6.09c-.02-.1-.05-.22-.12-.22s-.12.12-.15.22l-2.27,6.06c-.02.1,0,.17.1.17h4.53Z"/>
      </g>
      <g>
        <path class="cls-1" d="m110.58,46.23c2.04,0,3.09,1.12,3.09,1.12l-.59.89s-.98-.92-2.45-.92c-1.9,0-3.13,1.44-3.13,3.24s1.26,3.35,3.15,3.35c1.6,0,2.62-1.1,2.62-1.1l.64.85s-1.16,1.35-3.29,1.35c-2.55,0-4.34-1.95-4.34-4.43s1.85-4.34,4.31-4.34Z"/>
        <path class="cls-1" d="m115.51,46.37h4.92v1.03h-3.73v2.65h3.04v1.03h-3.04v2.73h3.94v1.03h-5.13v-8.48Z"/>
        <path class="cls-1" d="m122.4,46.37h1.18l3.77,5.51c.31.46.71,1.22.71,1.22h.02s-.08-.76-.08-1.22v-5.51h1.19v8.48h-1.16l-3.78-5.5c-.31-.47-.71-1.24-.71-1.24h-.02s.08.76.08,1.24v5.5h-1.19v-8.48Z"/>
        <path class="cls-1" d="m133.3,47.41h-2.91v-1.03h7v1.03h-2.91v7.45h-1.19v-7.45Z"/>
        <path class="cls-1" d="m138.61,46.37h2.59c.89,0,1.26.07,1.59.19.86.32,1.43,1.18,1.43,2.29s-.6,1.99-1.52,2.29v.02s.1.11.25.38l1.8,3.29h-1.35l-1.79-3.37h-1.81v3.37h-1.19v-8.48Zm2.89,4.07c.92,0,1.5-.59,1.5-1.54,0-.62-.24-1.07-.67-1.31-.23-.12-.5-.19-1.16-.19h-1.37v3.04h1.71Z"/>
        <path class="cls-1" d="m150.09,46.23c2.45,0,4.35,1.89,4.35,4.32s-1.9,4.44-4.35,4.44-4.36-1.95-4.36-4.44,1.91-4.32,4.36-4.32Zm0,7.67c1.73,0,3.12-1.44,3.12-3.35s-1.39-3.24-3.12-3.24-3.13,1.39-3.13,3.24,1.4,3.35,3.13,3.35Z"/>
        <path class="cls-1" d="m162.99,46.23c2.04,0,3.09,1.12,3.09,1.12l-.59.89s-.99-.92-2.45-.92c-1.9,0-3.13,1.44-3.13,3.24s1.26,3.35,3.15,3.35c1.6,0,2.62-1.1,2.62-1.1l.64.85s-1.16,1.35-3.29,1.35c-2.55,0-4.34-1.95-4.34-4.43s1.85-4.34,4.31-4.34Z"/>
        <path class="cls-1" d="m171.66,46.23c2.45,0,4.35,1.89,4.35,4.32s-1.9,4.44-4.35,4.44-4.36-1.95-4.36-4.44,1.91-4.32,4.36-4.32Zm0,7.67c1.73,0,3.12-1.44,3.12-3.35s-1.39-3.24-3.12-3.24-3.13,1.39-3.13,3.24,1.4,3.35,3.13,3.35Z"/>
        <path class="cls-1" d="m177.74,46.37h1.18l3.77,5.51c.31.46.71,1.22.71,1.22h.02s-.08-.76-.08-1.22v-5.51h1.19v8.48h-1.16l-3.78-5.5c-.31-.47-.71-1.24-.71-1.24h-.02s.08.76.08,1.24v5.5h-1.19v-8.48Z"/>
        <path class="cls-1" d="m190.59,46.23c2.03,0,3.09,1.02,3.09,1.02l-.6.89s-.95-.83-2.39-.83c-1.99,0-3.19,1.45-3.19,3.27,0,1.97,1.34,3.33,3.12,3.33,1.46,0,2.4-1.06,2.4-1.06v-1.23h-1.38v-1.03h2.46v4.26h-1.04v-.53c0-.18.01-.36.01-.36h-.02s-.92,1.03-2.61,1.03c-2.28,0-4.17-1.8-4.17-4.4,0-2.45,1.85-4.37,4.32-4.37Z"/>
        <path class="cls-1" d="m195.96,46.37h2.59c.89,0,1.26.07,1.59.19.86.32,1.43,1.18,1.43,2.29s-.6,1.99-1.52,2.29v.02s.1.11.25.38l1.8,3.29h-1.34l-1.79-3.37h-1.81v3.37h-1.19v-8.48Zm2.89,4.07c.92,0,1.5-.59,1.5-1.54,0-.62-.24-1.07-.67-1.31-.23-.12-.5-.19-1.16-.19h-1.37v3.04h1.71Z"/>
        <path class="cls-1" d="m203.66,46.37h4.92v1.03h-3.74v2.65h3.04v1.03h-3.04v2.73h3.94v1.03h-5.13v-8.48Z"/>
        <path class="cls-1" d="m210.56,52.98s.9.91,2.16.91c.79,0,1.47-.44,1.47-1.25,0-1.84-4.11-1.44-4.11-4.05,0-1.32,1.14-2.37,2.74-2.37s2.4.85,2.4.85l-.54.98s-.78-.73-1.86-.73c-.9,0-1.54.56-1.54,1.24,0,1.75,4.11,1.28,4.11,4.03,0,1.31-1.01,2.39-2.69,2.39-1.8,0-2.81-1.12-2.81-1.12l.67-.9Z"/>
        <path class="cls-1" d="m217.12,52.98s.9.91,2.16.91c.79,0,1.47-.44,1.47-1.25,0-1.84-4.11-1.44-4.11-4.05,0-1.32,1.14-2.37,2.74-2.37s2.4.85,2.4.85l-.54.98s-.78-.73-1.86-.73c-.9,0-1.54.56-1.54,1.24,0,1.75,4.11,1.28,4.11,4.03,0,1.31-1.01,2.39-2.69,2.39-1.8,0-2.81-1.12-2.81-1.12l.67-.9Z"/>
        <path class="cls-1" d="m223.65,46.37h1.19v8.48h-1.19v-8.48Z"/>
      </g>
    </g>
    <path class="cls-3" d="m57.85,28.85s-3.15-5.15-8.42-8.49c1.36-6.03-.13-11.88-.13-11.88l-.07-.07s-5.86-1.5-11.9-.13C33.97,3.09,28.91,0,28.91,0c-3.85,2.92-6.46,5.75-8.18,8.39-6.11-1.52-12.08-.19-12.08-.19-.77,4.95-.66,8.89-.03,12.04C3.23,23.57,0,28.85,0,28.85c2.89,3.81,5.71,6.39,8.37,8.11-1.51,6.17.04,12.26.04,12.26l.07.07s6.39,1.64,12.71-.07c1.73,2.42,4.21,5,7.72,7.66,0,0,5.2-3.19,8.55-8.51,3.28.66,7.38.68,12.53-.42,0,0,.72-5.23-.85-10.76,2.75-1.7,5.69-4.34,8.71-8.32Zm-10.82-18.23l.05.05s.58,3.77-.5,8.18c-1.93-.82-4.07-1.33-6.38-1.29.03-2.33-.51-4.49-1.35-6.44,4.42-1.08,8.18-.5,8.18-.5ZM12.09,35.92c.74-1.75,1.8-3.5,3.3-5.06,1.12.94,2.47,1.59,3.81,2.03-.44.79-1.11,2.24-1.41,4.2-2.12-.08-4.02-.52-5.7-1.17Zm5.88-15.37c.42,2.09,1.21,3.54,1.58,4.12-2.09.62-3.46,1.54-4.28,2.26-1.5-1.62-2.55-3.36-3.29-5.07,2.18-.9,4.23-1.25,5.99-1.31Zm3.48,3.45c-.33-1.15-.53-2.25-.66-3.31,1.97.26,3.17.79,3.17.79l.22.04c-.16.94-.24,1.8-.28,2.49-.87.03-1.66.11-2.39.22l-.07-.23Zm2.53,9.79c.09.8.25,1.61.44,2.4l-.43.12c-1.14.32-2.23.53-3.28.65.09-1.12.28-2.3.59-3.53,1.02.2,1.95.3,2.68.36Zm9.78.1c.99-.02,1.92-.12,2.78-.27.22.69.51,1.86.63,3.36-1.06-.12-2.17-.33-3.32-.66l-.44-.12c.17-.87.28-1.66.35-2.3Zm6.13-4.91c-.49.36-.97.67-1.43.95-1.56.57-3.61,1.01-6.01.84l-1.61-.11-.04,1.61c0,.05-.13,4.44-1.86,7.62-.87-2.03-1.96-5.07-1.97-7.6v-1.57s-1.58.04-1.58.04c-1.46.04-5.25-.28-7.59-1.92,1.16-.83,3.48-1.9,7.57-1.74l1.68.06-.08-1.68c0-.06-.21-4.82,1.83-7.77.02-.03.04-.06.07-.09.95,1.37,2.23,3.94,1.94,7.67l-.14,1.85,1.85-.2s2.64-.27,5.4.83c.57.3,1.25.69,1.98,1.22Zm-3.62-4.88c-.89-.16-1.69-.24-2.35-.26-.02-.83-.1-1.6-.23-2.32l.2-.04s1.22-.53,3.21-.79c-.26,2.03-.8,3.28-.8,3.28l-.03.14Zm-3.12-4.71c-.62-1.85-1.5-3.23-2.18-4.1,1.55-1.46,3.26-2.49,4.98-3.21.86,2.12,1.2,4.12,1.27,5.84-1.31.29-2.67.77-4.07,1.47Zm-8.45-.01c-1.38-.69-2.72-1.16-4.02-1.45.07-2.24.55-4.24,1.24-6,2.09.9,3.72,2.06,4.98,3.23-1.07,1.24-1.75,2.74-2.2,4.22Zm.32,18.81c.57,1.74,1.24,3.27,1.71,4.25-1.43,1.34-3,2.32-4.59,3.02-.72-1.67-1.25-3.59-1.41-5.73,2.07-.39,3.57-1.13,4.3-1.55Zm7.95-.12c.68.41,2.16,1.17,4.22,1.59-.14,1.67-.54,3.57-1.41,5.57-1.6-.62-3.22-1.51-4.79-2.77.92-1.35,1.55-2.9,1.98-4.38Zm7.06-.98c-.21-1.3-.6-2.64-1.21-4.02,1.64-.52,2.92-1.18,3.77-1.71,1.11,1.21,2.19,2.72,3.06,4.61-1.66.63-3.54,1.05-5.62,1.12Zm2.34-10.29c-1.28-1.02-2.65-1.7-3.95-2.15.7-1.41,1.18-2.78,1.47-4.11,1.7.06,3.66.39,5.76,1.22-.73,1.74-1.78,3.48-3.27,5.04ZM28.91,3.01c2.5,2.04,4.29,4.13,5.54,6.16-1.83.73-3.59,1.8-5.12,3.33-.14.14-.28.29-.42.43-1.66-1.74-3.63-2.94-5.66-3.74,2.42-4.06,5.66-6.18,5.66-6.18Zm-18.17,7.35c3.34-.28,6.16.02,8.52.65-1.13,2.42-1.54,4.63-1.57,6.55-2.43-.05-4.66.51-6.68,1.4-1.16-4.7-.28-8.6-.28-8.6ZM3.01,28.85c2.13-2.61,4.31-4.43,6.42-5.7.91,2.54,2.19,4.39,3.53,5.74-.15.14-.3.29-.46.44-1.54,1.54-2.61,3.32-3.34,5.16-4.03-2.42-6.15-5.64-6.15-5.64Zm7.66,18.23l-.05-.05s-.61-3.96.59-8.52c2.36,1.05,4.54,1.45,6.44,1.49.11,1.89.62,4.05,1.83,6.42-4.68,1.31-8.81.67-8.81.67Zm18.24,6.78s-2.88-1.89-5.24-5.51c1.62-.7,3.17-1.67,4.55-3.01l.02.04,1.04-1c1.33,1.21,3.05,2.34,5.27,3.16-1.26,2.08-3.07,4.22-5.64,6.32Zm18.77-7.86s-4.04,1.16-8.99.1c.86-1.86,1.44-3.92,1.51-6.15,1.89-.02,4.07-.4,6.42-1.44.65,2.11,1.06,4.59,1.06,7.49Zm.61-11.28c-.77-1.84-1.84-3.63-3.32-5.19l.02-.02-.45-.52c.22-.2.44-.41.66-.63,1.54-1.54,2.6-3.31,3.34-5.14,2.07,1.26,4.21,3.07,6.29,5.62,0,0-2.25,3.43-6.55,5.87Z"/>
  </g>
</svg>